<?xml version="1.0" encoding="UTF-8"?>
<svg version="1.1" xmlns="http://www.w3.org/2000/svg" width="400" height="400">
<path d="M0 0 C0.00386719 1.0209375 0.00386719 1.0209375 0.0078125 2.0625 C0.5310652 15.17870104 5.08829437 26.61497443 13.36328125 36.765625 C14.95055704 38.93250268 15.58493172 40.37724972 16 43 C6.30527847 49.281335 -5.47665774 50.49502314 -16.65625 48.2734375 C-23.14032823 46.59792989 -28.56895093 45.16955725 -33 40 C-36.03045847 34.07084212 -34.81385348 28.63305539 -32.9375 22.5625 C-27.98731222 11.93056959 -17.32257289 4.45532759 -6.75 0.1875 C-3 -1 -3 -1 0 0 Z " fill="#44BAFF" transform="translate(188,166)"/>
<path d="M0 0 C2.43699677 0.95281077 4.3688381 2.19181831 6.515625 3.6875 C11.97063871 7.46331819 16.60288147 10.15152462 23.078125 11.875 C27.20006899 12.98099575 31.14958185 14.13840491 35.078125 15.8125 C29.58349017 24.05445225 13.69439724 28.28055837 4.296875 30.18359375 C-16.96968203 33.72970134 -38.04592182 28.72980212 -55.921875 16.8125 C-55.921875 15.8225 -55.921875 14.8325 -55.921875 13.8125 C-55.30368896 13.83344727 -54.68550293 13.85439453 -54.04858398 13.87597656 C-35.69231096 14.41431366 -20.21127088 13.41494087 -5.109375 1.9375 C-1.921875 -0.1875 -1.921875 -0.1875 0 0 Z " fill="#49BCFF" transform="translate(209.921875,213.1875)"/>
<path d="M0 0 C0.48726563 0.43957031 0.97453125 0.87914063 1.4765625 1.33203125 C1.4765625 1.99203125 1.4765625 2.65203125 1.4765625 3.33203125 C0.30480469 3.62335938 -0.86695313 3.9146875 -2.07421875 4.21484375 C-12.50971764 6.90124281 -22.01355241 9.75999894 -30.4609375 16.76953125 C-32.5234375 18.33203125 -32.5234375 18.33203125 -34.375 18.109375 C-36.87774237 17.20383731 -38.77796581 15.97792314 -40.9609375 14.45703125 C-56.4459592 3.73870319 -71.14265446 3.57076945 -89.5234375 3.33203125 C-82.62455988 -6.53115804 -66.79469859 -10.00037579 -55.6171875 -12.25390625 C-36.62260748 -14.79611014 -15.88412079 -10.94560323 0 0 Z " fill="#55C0FF" transform="translate(243.5234375,96.66796875)"/>
<path d="M0 0 C0.495 0.495 0.495 0.495 1 1 C0.69602707 6.26886409 -0.08839292 9.38360855 -4 13 C-7.00620928 13.41172655 -9.56327489 13.5489941 -12.5625 13.5 C-31.39491261 13.8734216 -51.14840581 20.01983588 -66.08203125 31.71484375 C-68 33 -68 33 -71 33 C-70.24205715 21.2518859 -66.27465277 12.47404199 -58 4 C-41.74008463 -9.69393839 -17.75755355 -13.52493119 0 0 Z " fill="#4FBEFF" transform="translate(195,127)"/>
<path d="M0 0 C1.67416629 2.0455377 3.05296054 3.95876535 4.4375 6.1875 C5.02845459 7.12710571 5.02845459 7.12710571 5.63134766 8.08569336 C13.08565417 20.3728599 17.7330134 35.58406986 17 50 C5.94374188 51.28561141 -5.54691656 44.58315892 -14 38 C-20.35770383 32.27806655 -24.89191653 26.66054715 -26 18 C-25.84252779 13.19709758 -25.0451671 9.75570609 -22 6 C-16.61290727 2.18414265 -6.49897883 -3.21033894 0 0 Z " fill="#4FBEFF" transform="translate(263,114)"/>
<path d="M0 0 C3.89907201 0.64362672 6.59971893 2.5434569 9.875 4.6875 C27.46050095 15.77682723 45.52214746 19.52098591 66 20 C67.03417258 23.25884614 67.09193517 24.75073915 65.890625 28.0078125 C65.34921875 29.03648437 64.8078125 30.06515625 64.25 31.125 C63.71890625 32.15882813 63.1878125 33.19265625 62.640625 34.2578125 C61.22670767 36.62107432 60.16014586 38.32421674 58 40 C43.73157742 42.80272586 30.32446328 40.90121162 18 33 C16.64041021 31.35468205 15.30121243 29.6918634 14 28 C13.34 28 12.68 28 12 28 C5.46536811 20.68743574 0.42273442 12.23533264 -0.25 2.3125 C-0.1675 1.549375 -0.085 0.78625 0 0 Z " fill="#4EBEFF" transform="translate(208,168)"/>
<path d="M0 0 C3.98613502 0.64666113 6.82794462 2.64905872 10.1875 4.8125 C15.29901705 8.05285607 20.39212131 10.71882901 26 13 C24.68 13.33 23.36 13.66 22 14 C21.896875 14.845625 21.79375 15.69125 21.6875 16.5625 C21 20 21 20 19.375 23.625 C17.84504076 26.73063256 17.84504076 26.73063256 18.0625 29.1875 C19.30964138 31.59864 20.99756069 33.19134514 23 35 C18.53545019 33.635832 16.7904863 31.65649929 14 28 C13.34 28 12.68 28 12 28 C5.46536811 20.68743574 0.42273442 12.23533264 -0.25 2.3125 C-0.1675 1.549375 -0.085 0.78625 0 0 Z " fill="#58C1FF" transform="translate(208,168)"/>
<path d="M0 0 C1.43791516 0.14168137 2.8753237 0.28851043 4.3125 0.4375 C5.11300781 0.51871094 5.91351563 0.59992188 6.73828125 0.68359375 C9 1 9 1 12 2 C15.47464875 2.23263374 18.9558499 2.18979812 22.4375 2.1875 C23.92733398 2.1884668 23.92733398 2.1884668 25.44726562 2.18945312 C31.62599929 2.1450018 37.5075916 1.76662623 43.5625 0.4375 C46.40935701 -0.07347434 49.11375808 -0.06712191 52 0 C37.06474769 7.95163896 18.52495768 6.47429747 2.796875 1.875 C1.87390625 1.58625 0.9509375 1.2975 0 1 C0 0.67 0 0.34 0 0 Z " fill="#C4E9FF" transform="translate(174,239)"/>
<path d="M0 0 C-1 2 -1 2 -3.95703125 3.0703125 C-16.43329847 6.48327314 -26.49887786 7.13422937 -39 3 C-39 2.67 -39 2.34 -39 2 C-32.07 2.495 -32.07 2.495 -25 3 C-25 3.66 -25 4.32 -25 5 C-16.61495799 3.86055875 -16.61495799 3.86055875 -8.5625 1.375 C-5.33929462 0.13095582 -3.38739282 -0.31756808 0 0 Z " fill="#CEECFF" transform="translate(203,209)"/>
<path d="M0 0 C2.97 0.99 5.94 1.98 9 3 C7.68 3.33 6.36 3.66 5 4 C4.896875 4.845625 4.79375 5.69125 4.6875 6.5625 C4 10 4 10 2.375 13.625 C0.84504076 16.73063256 0.84504076 16.73063256 1.0625 19.1875 C2.30964138 21.59864 3.99756069 23.19134514 6 25 C-0.13680387 22.84382567 -0.13680387 22.84382567 -2 20 C-2.375 16.5 -2.375 16.5 -2 13 C-0.625 11.5 -0.625 11.5 1 10 C1.74386068 7.69011685 2.42190703 5.35684056 3 3 C2.01 2.01 1.02 1.02 0 0 Z " fill="#CCEBFF" transform="translate(225,178)"/>
<path d="M0 0 C9.24 0 18.48 0 28 0 C24.81579155 2.12280563 23.79462745 2.28019537 20.11328125 2.4140625 C18.7065918 2.47207031 18.7065918 2.47207031 17.27148438 2.53125 C15.80678711 2.57765625 15.80678711 2.57765625 14.3125 2.625 C13.32443359 2.66367188 12.33636719 2.70234375 11.31835938 2.7421875 C8.87909293 2.83645867 6.43983405 2.92206218 4 3 C4.99 3.99 5.98 4.98 7 6 C2.25 4.125 2.25 4.125 0 3 C0 2.01 0 1.02 0 0 Z " fill="#CDEDFF" transform="translate(154,227)"/>
<path d="M0 0 C0.33 4.95 0.66 9.9 1 15 C-1.52480693 12.47519307 -1.55738633 10.86176966 -2.125 7.375 C-2.29257813 6.37210938 -2.46015625 5.36921875 -2.6328125 4.3359375 C-2.75398437 3.56507813 -2.87515625 2.79421875 -3 2 C-5.97 2.66 -8.94 3.32 -12 4 C-10.720327 1.44065399 -9.75798964 1.3010767 -7.125 0.3125 C-6.07699219 -0.09548828 -6.07699219 -0.09548828 -5.0078125 -0.51171875 C-3 -1 -3 -1 0 0 Z " fill="#B9E6FF" transform="translate(188,166)"/>
<path d="M0 0 C0.82638376 2.89234315 1 4.88742431 1 8 C1.92232422 7.33291016 1.92232422 7.33291016 2.86328125 6.65234375 C3.67152344 6.08644531 4.47976562 5.52054688 5.3125 4.9375 C6.11300781 4.36902344 6.91351563 3.80054688 7.73828125 3.21484375 C8.48464844 2.81394531 9.23101562 2.41304687 10 2 C10.99 2.33 11.98 2.66 13 3 C11.06829319 4.34171264 9.12943124 5.67312883 7.1875 7 C6.10855469 7.7425 5.02960938 8.485 3.91796875 9.25 C1 11 1 11 -2 11 C-1.85892253 9.54119891 -1.71197585 8.08296449 -1.5625 6.625 C-1.48128906 5.81289062 -1.40007812 5.00078125 -1.31640625 4.1640625 C-1 2 -1 2 0 0 Z " fill="#DEF2FF" transform="translate(126,149)"/>
<path d="M0 0 C0.66 0.33 1.32 0.66 2 1 C1.67 1.66 1.34 2.32 1 3 C6.28 3.33 11.56 3.66 17 4 C17 4.33 17 4.66 17 5 C9.74 5 2.48 5 -5 5 C-4 2 -4 2 -2.0625 0.75 C-1.381875 0.5025 -0.70125 0.255 0 0 Z " fill="#82D1FF" transform="translate(161,94)"/>
<path d="M0 0 C0.66 0.33 1.32 0.66 2 1 C0.92492371 2.29854721 -0.16043736 3.58858361 -1.25 4.875 C-1.85328125 5.59429687 -2.4565625 6.31359375 -3.078125 7.0546875 C-4.97087634 8.97052118 -6.53657727 9.96449045 -9 11 C-7.44095325 7.17324889 -4.96833913 4.81992217 -2 2 C-1.34 1.34 -0.68 0.68 0 0 Z " fill="#98D9FF" transform="translate(141,128)"/>
<path d="M0 0 C2.97 0.33 5.94 0.66 9 1 C9 1.99 9 2.98 9 4 C6.625 5.75 6.625 5.75 4 7 C3.34 6.67 2.68 6.34 2 6 C3.32 5.01 4.64 4.02 6 3 C4.02 2.34 2.04 1.68 0 1 C0 0.67 0 0.34 0 0 Z " fill="#C0E7FF" transform="translate(235,227)"/>
<path d="M0 0 C2.97 0.99 5.94 1.98 9 3 C7.68 3.33 6.36 3.66 5 4 C4.67 5.98 4.34 7.96 4 10 C3.34 9.67 2.68 9.34 2 9 C2.226875 8.071875 2.45375 7.14375 2.6875 6.1875 C2.790625 5.135625 2.89375 4.08375 3 3 C2.01 2.01 1.02 1.02 0 0 Z " fill="#BCE6FF" transform="translate(225,178)"/>
<path d="M0 0 C3.79588866 0.54226981 5.47211993 2.20127563 8 5 C5.525 4.01 5.525 4.01 3 3 C2.67 4.98 2.34 6.96 2 9 C-0.29013653 5.5647952 -0.17842973 4.014669 0 0 Z " fill="#CCEDFF" transform="translate(208,168)"/>
<path d="M0 0 C1.17571451 3.67410785 1.07366746 7.16929183 1 11 C0.01 11 -0.98 11 -2 11 C-1.85892253 9.54119891 -1.71197585 8.08296449 -1.5625 6.625 C-1.48128906 5.81289062 -1.40007812 5.00078125 -1.31640625 4.1640625 C-1 2 -1 2 0 0 Z " fill="#B7E3FF" transform="translate(126,149)"/>
<path d="M0 0 C-0.33 0.66 -0.66 1.32 -1 2 C-3.06640625 2.4140625 -3.06640625 2.4140625 -5.5625 2.625 C-6.38878906 2.69976562 -7.21507812 2.77453125 -8.06640625 2.8515625 C-9.02353516 2.92503906 -9.02353516 2.92503906 -10 3 C-6.88378718 -0.11621282 -4.21175599 -0.11383124 0 0 Z " fill="#B4E3FF" transform="translate(203,209)"/>
<path d="M0 0 C2.45823172 3.68734758 3.01242616 6.69699971 4 11 C3.34 10.67 2.68 10.34 2 10 C2 9.01 2 8.02 2 7 C1.34 7 0.68 7 0 7 C0 4.69 0 2.38 0 0 Z " fill="#C2E9FF" transform="translate(189,181)"/>
<path d="M0 0 C0.33 0.99 0.66 1.98 1 3 C-0.3125 5.1875 -0.3125 5.1875 -2 7 C-2.66 7 -3.32 7 -4 7 C-3.43628586 3.73045798 -2.50037734 2.17424117 0 0 Z " fill="#DDF2FF" transform="translate(227,187)"/>
</svg>
